<svg width="20" height="21" viewBox="0 0 20 21" fill="none" xmlns="http://www.w3.org/2000/svg">
<path d="M1.25 17.375H18.75" stroke="white" stroke-linecap="round" stroke-linejoin="round"/>
<path d="M11.25 17.375V3.625C11.25 3.45924 11.1842 3.30027 11.0669 3.18306C10.9497 3.06585 10.7908 3 10.625 3H3.125C2.95924 3 2.80027 3.06585 2.68306 3.18306C2.56585 3.30027 2.5 3.45924 2.5 3.625V17.375" stroke="white" stroke-linecap="round" stroke-linejoin="round"/>
<path d="M17.5 17.375V8.625C17.5 8.45924 17.4342 8.30027 17.3169 8.18306C17.1997 8.06585 17.0408 8 16.875 8H11.25" stroke="white" stroke-linecap="round" stroke-linejoin="round"/>
<path d="M5 6.125H7.5" stroke="white" stroke-linecap="round" stroke-linejoin="round"/>
<path d="M6.25 11.125H8.75" stroke="white" stroke-linecap="round" stroke-linejoin="round"/>
<path d="M5 14.25H7.5" stroke="white" stroke-linecap="round" stroke-linejoin="round"/>
<path d="M13.75 14.25H15" stroke="white" stroke-linecap="round" stroke-linejoin="round"/>
<path d="M13.75 11.125H15" stroke="white" stroke-linecap="round" stroke-linejoin="round"/>
</svg>
