<svg width="20" height="21" viewBox="0 0 20 21" fill="none" xmlns="http://www.w3.org/2000/svg">
<path d="M9.55469 6.07812L11.1016 4.53124C11.7565 3.93431 12.6162 3.61268 13.5022 3.63319C14.3881 3.6537 15.232 4.01477 15.8586 4.64137C16.4852 5.26798 16.8463 6.11192 16.8668 6.99783C16.8873 7.88375 16.5657 8.7435 15.9687 9.39843L13.7578 11.6016C13.4392 11.9214 13.0605 12.1752 12.6436 12.3483C12.2266 12.5215 11.7796 12.6106 11.3281 12.6106C10.8767 12.6106 10.4296 12.5215 10.0127 12.3483C9.59573 12.1752 9.21708 11.9214 8.89844 11.6016" stroke="white" stroke-linecap="round" stroke-linejoin="round"/>
<path d="M10.4454 14.9219L8.89849 16.4688C8.24356 17.0657 7.38381 17.3873 6.4979 17.3668C5.61198 17.3463 4.76804 16.9852 4.14143 16.3586C3.51483 15.732 3.15376 14.8881 3.13325 14.0022C3.11274 13.1163 3.43437 12.2565 4.0313 11.6016L6.24224 9.39845C6.56088 9.07861 6.93954 8.82483 7.35648 8.65167C7.77342 8.47851 8.22046 8.38937 8.67193 8.38937C9.1234 8.38937 9.57043 8.47851 9.98738 8.65167C10.4043 8.82483 10.783 9.07861 11.1016 9.39845" stroke="white" stroke-linecap="round" stroke-linejoin="round"/>
</svg>
