<svg width="20" height="21" viewBox="0 0 20 21" fill="none" xmlns="http://www.w3.org/2000/svg">
<path d="M9.99993 7.37501C9.99993 5.65626 11.4452 4.22657 13.164 4.25001C13.7659 4.25696 14.353 4.4376 14.8547 4.77022C15.3564 5.10285 15.7514 5.57329 15.9921 6.12501H18.7499L16.2265 8.64845C16.0636 11.1833 14.9416 13.5609 13.0884 15.298C11.2352 17.0351 8.78998 18.0013 6.24993 18C3.74993 18 3.12493 17.0625 3.12493 17.0625C3.12493 17.0625 5.62493 16.125 6.87493 14.25C6.87493 14.25 1.87493 11.75 3.12493 4.87501C3.12493 4.87501 6.24993 8.00001 9.99993 8.62501V7.37501Z" stroke="white" stroke-linecap="round" stroke-linejoin="round"/>
</svg>
